HIERARCHY
ROOT Hips
{
	OFFSET 0.00000 0.00000 0.00000
	CHANNELS 6 Xposition Yposition Zposition Zrotation Yrotation Xrotation 
	JOINT LHipJoint
	{
		OFFSET 0 0 0
		CHANNELS 3 Zrotation Yrotation Xrotation
		JOINT LeftHip
		{
			OFFSET 1.66553 -1.82942 0.76350
			CHANNELS 3 Zrotation Yrotation Xrotation
			JOINT LeftKnee
			{
				OFFSET 2.41740 -6.64177 0.00000
				CHANNELS 3 Zrotation Yrotation Xrotation
				JOINT LeftAnkle
				{
					OFFSET 2.71614 -7.46254 0.00000
					CHANNELS 3 Zrotation Yrotation Xrotation
					JOINT LeftToe
					{
						OFFSET 0.08005 -0.21993 1.82495
						CHANNELS 3 Zrotation Yrotation Xrotation
						End Site
						{
							OFFSET 0.00000 -0.00000 0.93441
						}
					}
				}
			}
		}
	}
	JOINT RHipJoint
	{
		OFFSET 0 0 0
		CHANNELS 3 Zrotation Yrotation Xrotation
		JOINT RightHip
		{
			OFFSET -1.63725 -1.82942 0.76350
			CHANNELS 3 Zrotation Yrotation Xrotation
			JOINT RightKnee
			{
				OFFSET -2.40538 -6.60872 0.00000
				CHANNELS 3 Zrotation Yrotation Xrotation
				JOINT RightAnkle
				{
					OFFSET -2.73312 -7.50919 0.00000
					CHANNELS 3 Zrotation Yrotation Xrotation
					JOINT RightToe
					{
						OFFSET -0.15567 -0.42769 1.93504
						CHANNELS 3 Zrotation Yrotation Xrotation
						End Site
						{
							OFFSET -0.00000 -0.00000 1.00100
						}
					}
				}
			}
		}
	}
	JOINT lowerback
	{
		OFFSET 0 0 0
		CHANNELS 3 Zrotation Yrotation Xrotation
		JOINT Chest
		{
			OFFSET 0.00326 2.30118 -0.13017
			CHANNELS 3 Zrotation Yrotation Xrotation
			JOINT Chest2
			{
				OFFSET 0.02887 2.30677 0.00834
				CHANNELS 3 Zrotation Yrotation Xrotation
				JOINT lowerneck
				{
					OFFSET 0 0 0
					CHANNELS 3 Zrotation Yrotation Xrotation
					JOINT Neck
					{
						OFFSET 0.12946 1.68326 0.00713
						CHANNELS 3 Zrotation Yrotation Xrotation
						JOINT Head
						{
							OFFSET -0.24364 1.67243 -0.16079
							CHANNELS 3 Zrotation Yrotation Xrotation
							End Site
							{
								OFFSET -0.09229 1.70819 -0.06383
							}
						}
					}
				}
				JOINT LeftCollar
				{
					OFFSET 0 0 0
					CHANNELS 3 Zrotation Yrotation Xrotation
					JOINT LeftShoulder
					{
						OFFSET 3.28104 0.69567 -0.00556
CHANNELS 3 Zrotation Xrotation Yrotation
						JOINT LeftElbow
						{
OFFSET 0 -5.707060 -0.000000
CHANNELS 3 Zrotation Xrotation Yrotation
							JOINT LeftWrist
							{
OFFSET 0 -3.332430 0.000000
CHANNELS 3 Zrotation Xrotation Yrotation
								JOINT lhand
								{
									OFFSET 0 0 0
CHANNELS 3 Zrotation Xrotation Yrotation
									JOINT LFingers
									{
OFFSET 0 -0.792690 0.000000
CHANNELS 3 Zrotation Xrotation Yrotation
										End Site
										{
OFFSET 0 -0.639090 0.000000
										}
									}
								}
								JOINT LThumb
								{
OFFSET 0 0.000000 0.000000
CHANNELS 3 Zrotation Xrotation Yrotation
									End Site
									{
OFFSET 0 -0.648840 0.648840
									}
								}
							}
						}
					}
				}
				JOINT RightCollar
				{
					OFFSET 0 0 0
					CHANNELS 3 Zrotation Yrotation Xrotation
					JOINT RightShoulder
					{
						OFFSET -3.40955 0.64424 0.14010
CHANNELS 3 Zrotation Xrotation Yrotation
						JOINT RightElbow
						{
OFFSET 0 -5.881760 -0.000000
CHANNELS 3 Zrotation Xrotation Yrotation
							JOINT RightWrist
							{
OFFSET 0 -3.281560 0.000000
CHANNELS 3 Zrotation Xrotation Yrotation
								JOINT rhand
								{
									OFFSET 0 0 0
CHANNELS 3 Zrotation Xrotation Yrotation
									JOINT RFingers
									{
OFFSET 0 -0.863130 0.000000
CHANNELS 3 Zrotation Xrotation Yrotation
										End Site
										{
OFFSET 0 -0.695870 0.000000
										}
									}
								}
								JOINT RThumb
								{
OFFSET 0 0.000000 0.000000
CHANNELS 3 Zrotation Xrotation Yrotation
									End Site
									{
OFFSET 0 -0.706500 0.706500
									}
								}
							}
						}
					}
				}
			}
		}
	}
}
MOTION
Frames: 9
Frame Time: 0.008333333333333333
20.566100 16.553300 -25.850000 -0.029900 -29.086600 14.461800 0.000000 0.000000 0.000000 0.481600 -10.046600 -40.732200 6.483700 14.881300 46.893600 0.838700 -10.169300 -16.781900 3.179000 -10.979300 -32.210100 0.000000 0.000000 0.000000 2.137700 7.872100 -38.020300 -6.834000 -15.190500 48.243600 -1.737000 -1.267500 -25.401900 -1.804900 8.447200 -24.080900 1.845500 -0.658600 25.297000 -0.641200 -0.508300 3.362900 -1.602600 -0.357500 -10.379100 13.737900 6.297100 -5.566500 -20.808900 7.222500 -6.386300 -8.502400 3.450600 0.485500 -0.000000 0.000000 0.000000 60.321500 -4.643900 23.186800 17.376700 -27.351700 4.259000 45.469800 -23.007300 -32.282700 0.000000 0.000000 0.000000 -7.125000 0.000000 0.000000 22.304900 70.862200 -13.980200 -0.000000 0.000000 0.000000 -52.674000 -9.900200 -43.231800 -13.935700 -22.642800 -2.803300 -46.167000 -14.266500 -8.507400 0.000000 0.000000 0.000000 7.125000 0.000000 -0.000000 -13.483200 17.980400 -8.913200
20.597044 16.521066 -25.930645 0.016717 -28.694360 13.852736 0.000000 0.000000 0.000000 0.268239 -9.881888 -40.333898 6.408462 14.812888 46.599974 0.926185 -9.316256 -17.406399 4.248002 -12.483236 -37.463681 0.000000 0.000000 0.000000 2.185013 7.664936 -38.053111 -7.022343 -15.350735 48.958874 -1.758345 -1.050335 -25.473249 -1.749861 8.324065 -23.702837 2.680152 -0.851757 23.885188 -1.027116 -0.651305 5.112794 -2.462905 -0.415325 -7.702944 13.496174 5.184641 -3.145395 -19.298537 5.904755 -7.046805 -8.115868 2.923186 -0.428285 0.000000 0.000000 0.000000 59.107205 -11.822659 21.819817 16.437153 -26.109747 3.836336 44.376719 -22.058084 -31.076753 0.000000 0.000000 0.000000 -7.125000 0.000000 0.000000 19.946433 69.163095 -11.715658 0.000000 0.000000 0.000000 -50.595543 -16.817079 -38.718727 -13.249834 -21.652149 -2.544804 -47.601157 -11.386288 -8.706763 0.000000 0.000000 0.000000 7.125000 0.000000 0.000000 -14.390735 17.416268 -9.737073
20.622784 16.519322 -26.020203 0.284579 -28.541161 13.168444 0.000000 0.000000 0.000000 -0.083504 -9.873863 -39.743812 6.249726 14.665996 45.975761 0.919215 -9.830701 -17.427567 3.986551 -12.139003 -36.230338 0.000000 0.000000 0.000000 1.981958 7.563004 -37.820116 -7.069671 -15.390262 49.137319 -1.784664 -0.586514 -25.492367 -1.617625 8.019562 -22.773680 3.252147 -0.987388 22.901749 -1.509791 -0.787072 6.267289 -3.278914 -0.452132 -5.947987 13.476854 4.456646 -0.488492 -18.308792 5.211981 -7.189878 -7.887160 2.688826 -1.081613 0.000000 0.000000 0.000000 57.126878 -17.949769 17.948234 16.598340 -26.325191 3.907575 45.902539 -20.260225 -31.073271 0.000000 0.000000 0.000000 -7.125000 0.000000 0.000000 22.816269 69.637997 -13.698279 0.000000 0.000000 0.000000 -47.292980 -23.955135 -35.098765 -12.712074 -20.863872 -2.349770 -49.069178 -7.889582 -8.274493 0.000000 0.000000 0.000000 7.125000 0.000000 0.000000 -15.455970 17.716985 -10.406142
20.634518 16.517135 -26.124053 0.085162 -28.600047 13.200076 0.000000 0.000000 0.000000 0.158943 -9.506136 -39.662798 6.044899 14.471691 45.161649 0.878749 -9.666936 -17.044246 4.132902 -12.334763 -36.927396 0.000000 0.000000 0.000000 2.242240 7.792664 -38.232902 -7.099594 -15.415202 49.250035 -1.760250 -0.339087 -25.231898 -1.456429 7.627155 -21.587568 3.731577 -1.205445 21.282812 -1.895854 -1.056187 6.948395 -3.904253 -0.543841 -4.412214 13.394875 3.985061 1.788727 -17.195729 5.020854 -5.674853 -7.541416 2.651243 -1.115329 0.000000 0.000000 0.000000 55.084860 -22.647265 12.832285 16.567333 -26.283828 3.893785 45.780119 -19.617438 -31.452718 0.000000 0.000000 0.000000 -7.125000 0.000000 0.000000 22.692499 70.027764 -13.817491 0.000000 0.000000 0.000000 -43.183118 -30.141831 -30.122447 -12.249444 -20.177696 -2.187613 -48.628153 -6.157454 -8.592895 0.000000 0.000000 0.000000 7.125000 0.000000 0.000000 -15.091382 17.357333 -10.266268
20.633531 16.517113 -26.215608 -0.091400 -28.773470 12.791254 0.000000 0.000000 0.000000 0.366545 -9.290088 -39.009706 5.881020 14.312050 44.502348 0.914401 -9.343960 -17.307052 4.377656 -12.646507 -38.059575 0.000000 0.000000 0.000000 2.655686 7.737846 -37.989814 -7.055231 -15.378231 49.082857 -1.777460 0.270439 -25.153763 -1.316799 7.267941 -20.511733 4.015238 -1.213713 19.677010 -2.214678 -1.097033 7.585715 -4.407103 -0.516732 -2.912357 13.776396 3.440533 2.516590 -16.537502 4.744687 -2.090911 -7.354204 2.486831 -0.273064 0.000000 0.000000 0.000000 53.057218 -26.127107 6.543704 17.146374 -27.050340 4.153719 41.880033 -23.585101 -31.050798 0.000000 0.000000 0.000000 -7.125000 0.000000 0.000000 15.533139 68.348788 -8.785907 0.000000 0.000000 0.000000 -39.640749 -34.556898 -24.672690 -11.921342 -19.686500 -2.075696 -45.593941 -5.264035 -9.966294 0.000000 0.000000 0.000000 7.125000 0.000000 0.000000 -12.789182 16.095677 -8.975096
20.622357 16.466349 -26.308093 0.043229 -28.650283 12.109875 0.000000 0.000000 0.000000 0.414450 -9.216911 -38.691674 5.872000 14.303187 44.465910 0.895651 -9.649021 -17.190482 4.259489 -12.497253 -37.515496 0.000000 0.000000 0.000000 2.632403 7.751103 -37.955567 -7.243486 -15.533543 49.789313 -1.839806 0.776433 -25.440040 -1.164627 6.850498 -19.273220 3.604797 -0.958443 18.494082 -1.957650 -0.864612 7.790445 -3.949050 -0.388915 -2.055160 13.929853 2.934230 4.321004 -16.545750 4.491670 0.382272 -7.401142 2.404652 0.090482 0.000000 0.000000 0.000000 51.808264 -27.377590 -3.549111 17.977734 -28.128585 4.538808 36.585334 -27.465679 -31.425200 0.000000 0.000000 0.000000 -7.125000 0.000000 0.000000 7.081392 67.126361 -3.803222 0.000000 0.000000 0.000000 -38.658118 -34.217220 -15.138831 -12.963073 -21.232822 -2.440019 -40.306134 -6.158928 -9.779236 0.000000 0.000000 0.000000 7.125000 0.000000 0.000000 -9.289116 17.345327 -6.179863
20.601885 16.453613 -26.348162 0.396934 -28.728901 11.327341 0.000000 0.000000 0.000000 0.069347 -8.983962 -38.020463 5.834150 14.265650 44.312439 0.873231 -10.156424 -17.084543 4.200636 -12.422417 -37.243543 0.000000 0.000000 0.000000 2.492887 7.579395 -37.564582 -7.338810 -15.610687 50.144430 -1.888969 0.565216 -25.846932 -1.299383 7.221196 -20.372519 2.979495 -1.075985 16.837470 -1.576165 -1.139113 7.658251 -3.143464 -0.528798 -1.351614 13.343124 2.888074 6.607793 -16.756816 4.864467 2.954013 -7.400852 2.642912 0.488534 0.000000 0.000000 0.000000 51.802893 -24.895939 -12.638311 19.954841 -30.587376 5.508536 28.798416 -33.388122 -27.778719 0.000000 0.000000 0.000000 -7.125000 0.000000 0.000000 -1.881043 60.981239 0.729891 0.000000 0.000000 0.000000 -39.642331 -32.481956 -6.626709 -14.370855 -23.261877 -2.973316 -32.986960 -11.458952 -15.583518 0.000000 0.000000 0.000000 7.125000 0.000000 0.000000 -3.525734 11.612560 -2.751844
20.580798 16.434285 -26.363406 0.191360 -28.395663 10.546149 0.000000 0.000000 0.000000 0.229612 -8.878685 -37.225350 5.859593 14.290854 44.415512 0.913385 -10.418071 -17.483251 4.350347 -12.612563 -37.935074 0.000000 0.000000 0.000000 2.981547 7.194694 -36.547513 -7.350224 -15.619847 50.186909 -1.919853 0.071924 -26.215399 -1.511774 7.764883 -22.002220 3.120072 -1.239024 15.563105 -1.099005 -1.342128 7.424713 -2.697905 -0.626706 -0.940089 13.793326 3.023652 8.629118 -17.871687 5.453011 4.586520 -7.889910 3.000997 0.743770 0.000000 0.000000 0.000000 53.220406 -21.405589 -18.180346 22.330854 -33.348579 6.766998 22.823201 -36.893515 -27.715961 0.000000 0.000000 0.000000 -7.125000 0.000000 0.000000 -8.721487 59.451063 3.090370 0.000000 0.000000 0.000000 -42.804285 -28.600110 -1.266082 -16.104153 -25.660971 -3.691326 -27.430110 -12.900860 -17.580933 0.000000 0.000000 0.000000 7.125000 0.000000 0.000000 0.357906 10.333733 0.287627
20.553239 16.431226 -26.329461 0.665285 -28.487258 9.747605 0.000000 0.000000 0.000000 -0.334028 -8.887239 -36.146246 5.775975 14.207584 44.075682 0.843468 -11.465788 -17.115888 3.373782 -11.276842 -33.219322 0.000000 0.000000 0.000000 2.698938 6.782406 -35.743538 -7.306098 -15.584244 50.022532 -1.959797 -0.279605 -26.604291 -1.755991 8.338062 -23.745793 2.877902 -1.162101 14.498385 -1.154711 -1.281023 6.646866 -2.635447 -0.607227 -1.193036 14.843214 3.388057 8.876812 -18.076333 6.364940 7.534824 -8.139936 3.436055 1.737785 0.000000 0.000000 0.000000 56.106949 -16.711298 -21.400316 24.550663 -35.740984 8.026028 17.612550 -41.514367 -26.388842 0.000000 0.000000 0.000000 -7.125000 0.000000 0.000000 -13.623019 56.956966 4.043094 0.000000 0.000000 0.000000 -46.087687 -22.669854 2.210773 -18.120939 -28.311695 -4.606472 -23.178379 -15.887057 -18.522802 0.000000 0.000000 0.000000 7.125000 0.000000 0.000000 3.223756 9.980577 2.620746
